HIERARCHY
ROOT Hips
{
	OFFSET 0.00000 0.00000 0.00000
	CHANNELS 6 Xposition Yposition Zposition Zrotation Yrotation Xrotation 
	JOINT LHipJoint
	{
		OFFSET 0 0 0
		CHANNELS 3 Zrotation Yrotation Xrotation
		JOINT LeftHip
		{
			OFFSET 1.37590 -1.78394 0.89329
			CHANNELS 3 Zrotation Yrotation Xrotation
			JOINT LeftKnee
			{
				OFFSET 2.47928 -6.81178 0.00000
				CHANNELS 3 Zrotation Yrotation Xrotation
				JOINT LeftAnkle
				{
					OFFSET 2.63345 -7.23535 0.00000
					CHANNELS 3 Zrotation Yrotation Xrotation
					JOINT LeftToe
					{
						OFFSET 0.23938 -0.65768 2.27012
						CHANNELS 3 Zrotation Yrotation Xrotation
						End Site
						{
							OFFSET 0.00000 -0.00000 1.18363
						}
					}
				}
			}
		}
	}
	JOINT RHipJoint
	{
		OFFSET 0 0 0
		CHANNELS 3 Zrotation Yrotation Xrotation
		JOINT RightHip
		{
			OFFSET -1.33617 -1.78394 0.89329
			CHANNELS 3 Zrotation Yrotation Xrotation
			JOINT RightKnee
			{
				OFFSET -2.56922 -7.05888 0.00000
				CHANNELS 3 Zrotation Yrotation Xrotation
				JOINT RightAnkle
				{
					OFFSET -2.56568 -7.04915 0.00000
					CHANNELS 3 Zrotation Yrotation Xrotation
					JOINT RightToe
					{
						OFFSET -0.27533 -0.75646 2.18105
						CHANNELS 3 Zrotation Yrotation Xrotation
						End Site
						{
							OFFSET -0.00000 -0.00000 1.15233
						}
					}
				}
			}
		}
	}
	JOINT lowerback
	{
		OFFSET 0 0 0
		CHANNELS 3 Zrotation Yrotation Xrotation
		JOINT Chest
		{
			OFFSET 0.06190 2.15152 -0.00935
			CHANNELS 3 Zrotation Yrotation Xrotation
			JOINT Chest2
			{
				OFFSET 0.06334 2.15332 0.00872
				CHANNELS 3 Zrotation Yrotation Xrotation
				JOINT lowerneck
				{
					OFFSET 0 0 0
					CHANNELS 3 Zrotation Yrotation Xrotation
					JOINT Neck
					{
						OFFSET -0.04202 1.66908 0.23524
						CHANNELS 3 Zrotation Yrotation Xrotation
						JOINT Head
						{
							OFFSET 0.07510 1.69357 -0.24440
							CHANNELS 3 Zrotation Yrotation Xrotation
							End Site
							{
								OFFSET 0.02556 1.71719 -0.11000
							}
						}
					}
				}
				JOINT LeftCollar
				{
					OFFSET 0 0 0
					CHANNELS 3 Zrotation Yrotation Xrotation
					JOINT LeftShoulder
					{
						OFFSET 3.67168 1.26306 -0.41342
CHANNELS 3 Zrotation Xrotation Yrotation
						JOINT LeftElbow
						{
OFFSET 0 -4.685100 -0.000000
CHANNELS 3 Zrotation Xrotation Yrotation
							JOINT LeftWrist
							{
OFFSET 0 -3.396260 -0.000000
CHANNELS 3 Zrotation Xrotation Yrotation
								JOINT lhand
								{
									OFFSET 0 0 0
CHANNELS 3 Zrotation Xrotation Yrotation
									JOINT LFingers
									{
OFFSET 0 -0.486080 -0.000000
CHANNELS 3 Zrotation Xrotation Yrotation
										End Site
										{
OFFSET 0 -0.391890 -0.000000
										}
									}
								}
								JOINT LThumb
								{
OFFSET 0 0.000000 0.000000
CHANNELS 3 Zrotation Xrotation Yrotation
									End Site
									{
OFFSET 0 -0.397870 0.397870
									}
								}
							}
						}
					}
				}
				JOINT RightCollar
				{
					OFFSET 0 0 0
					CHANNELS 3 Zrotation Yrotation Xrotation
					JOINT RightShoulder
					{
						OFFSET -3.04136 1.42992 -0.76390
CHANNELS 3 Zrotation Xrotation Yrotation
						JOINT RightElbow
						{
OFFSET 0 -5.555760 -0.000000
CHANNELS 3 Zrotation Xrotation Yrotation
							JOINT RightWrist
							{
OFFSET 0 -3.327740 -0.000000
CHANNELS 3 Zrotation Xrotation Yrotation
								JOINT rhand
								{
									OFFSET 0 0 0
CHANNELS 3 Zrotation Xrotation Yrotation
									JOINT RFingers
									{
OFFSET 0 -0.507630 -0.000000
CHANNELS 3 Zrotation Xrotation Yrotation
										End Site
										{
OFFSET 0 -0.409260 -0.000000
										}
									}
								}
								JOINT RThumb
								{
OFFSET 0 0.000000 0.000000
CHANNELS 3 Zrotation Xrotation Yrotation
									End Site
									{
OFFSET 0 -0.415510 0.415510
									}
								}
							}
						}
					}
				}
			}
		}
	}
}
MOTION
Frames: 8
Frame Time: 0.008333333333333333
44.224800 17.737700 3.676500 -113.187000 -84.535600 125.267000 0.000000 0.000000 0.000000 -10.616100 -7.509700 -19.136900 2.856200 10.458600 30.475000 0.633400 2.223800 -16.002400 0.212400 -2.966800 -8.186400 0.000000 0.000000 0.000000 28.886600 5.408000 -10.238900 -0.763800 -5.581100 15.573800 -0.318000 -8.475100 -16.925000 -0.940800 -6.177900 17.301400 3.930200 0.552200 -3.776300 3.769800 0.455700 -1.243800 1.690600 0.189000 0.841600 -6.299800 0.024100 -19.629100 5.966000 0.593100 16.513200 3.126400 0.500000 8.318100 0.000000 -0.000000 0.000000 -3.860700 1.153800 -2.512300 14.068900 -22.833100 2.854800 11.981600 33.224600 -20.377100 0.000000 0.000000 0.000000 -7.125000 0.000000 0.000000 -16.346100 50.051600 2.084500 0.000000 -0.000000 0.000000 -6.968600 -4.399100 22.553800 -13.167900 -21.532800 -2.514600 -15.982100 22.874400 24.936400 0.000000 0.000000 0.000000 7.125000 0.000000 -0.000000 14.534700 55.196600 -3.696100
44.219009 17.732909 3.663778 -111.055192 -84.542563 123.148192 0.000000 0.000000 0.000000 -10.324629 -7.580019 -20.255139 3.177401 10.975488 32.198624 0.620236 1.868715 -15.669382 0.244884 -3.183678 -8.790669 0.000000 0.000000 0.000000 29.052257 5.443545 -10.281024 -0.778729 -5.634245 15.726847 -0.341362 -8.492680 -17.232477 -0.947139 -6.198017 17.359921 4.031472 0.557440 -3.614454 3.796904 0.466271 -1.183299 1.661377 0.194261 0.813816 -6.060530 0.006930 -19.516376 5.547789 0.592511 16.198587 2.936615 0.473399 8.195543 0.000000 0.000000 0.000000 -3.862260 1.069446 -2.769683 14.099753 -22.877124 2.866801 12.051402 33.241849 -20.512314 0.000000 0.000000 0.000000 -7.125000 0.000000 0.000000 -16.336664 50.193377 2.141393 0.000000 0.000000 0.000000 -7.081352 -4.376709 23.027444 -13.442648 -21.932316 -2.616354 -15.959281 22.490531 24.942191 0.000000 0.000000 0.000000 7.125000 0.000000 0.000000 14.561024 55.197678 -3.703781
44.212117 17.728418 3.651236 -108.955067 -84.555874 121.046264 0.000000 0.000000 0.000000 -10.041175 -7.707244 -21.373562 3.519170 11.489117 33.950745 0.593494 1.611526 -15.224471 0.277674 -3.387586 -9.359920 0.000000 0.000000 0.000000 29.179938 5.181066 -10.308872 -0.773563 -5.615730 15.673390 -0.358829 -8.370760 -17.322025 -0.946928 -6.197306 17.358014 4.123226 0.554874 -3.443771 3.819745 0.467492 -1.112356 1.632499 0.195176 0.791858 -5.963796 0.006903 -19.452897 5.396366 0.601165 15.941681 2.864752 0.470025 8.098910 0.000000 0.000000 0.000000 -3.858171 0.980739 -2.994656 14.122875 -22.910162 2.875766 12.101878 33.168397 -20.344567 0.000000 0.000000 0.000000 -7.125000 0.000000 0.000000 -16.218680 50.038582 2.062282 0.000000 0.000000 0.000000 -7.219814 -4.366669 23.546079 -13.704712 -22.310692 -2.715095 -16.162499 22.121578 24.540772 0.000000 0.000000 0.000000 7.125000 0.000000 0.000000 14.152917 54.842985 -3.473487
44.204057 17.723358 3.637794 -106.730820 -84.533035 118.804903 0.000000 0.000000 0.000000 -9.701281 -7.840536 -22.510088 3.887946 12.006616 35.759578 0.569805 1.266662 -14.772852 0.304697 -3.548466 -9.809764 0.000000 0.000000 0.000000 29.363996 5.091366 -10.341959 -0.784446 -5.654213 15.784415 -0.385620 -8.321489 -17.595696 -0.970677 -6.272403 17.576938 4.259105 0.540502 -3.265648 3.839713 0.451756 -1.033284 1.575388 0.187613 0.774290 -5.983166 0.019090 -19.487609 5.436462 0.622725 15.791634 2.881781 0.485396 8.053065 0.000000 0.000000 0.000000 -3.836160 0.919493 -3.263576 14.185674 -22.999532 2.900247 12.066009 33.105556 -20.514557 0.000000 0.000000 0.000000 -7.125000 0.000000 0.000000 -16.323804 50.197929 2.141462 0.000000 0.000000 0.000000 -7.340746 -4.329361 24.178500 -14.009402 -22.747862 -2.831925 -16.318735 21.849746 24.348469 0.000000 0.000000 0.000000 7.125000 0.000000 0.000000 13.900611 54.683776 -3.355476
44.196474 17.719017 3.624752 -104.876125 -84.501683 116.905088 0.000000 0.000000 0.000000 -9.371257 -7.974896 -23.625610 4.273554 12.512615 37.575155 0.536038 1.050234 -14.248781 0.282753 -3.419937 -9.450101 0.000000 0.000000 0.000000 29.533986 5.056755 -10.350554 -0.798769 -5.704491 15.929349 -0.404569 -8.341517 -17.839316 -0.974529 -6.284406 17.611860 4.351911 0.545966 -3.044710 3.870160 0.467012 -0.948523 1.554032 0.195326 0.738266 -5.979973 0.033460 -19.479653 5.461671 0.642739 15.598961 2.888474 0.499730 7.985888 0.000000 0.000000 0.000000 -3.836821 0.881196 -3.615647 14.282340 -23.136884 2.938163 12.095562 33.023134 -20.628443 0.000000 0.000000 0.000000 -7.125000 0.000000 0.000000 -16.343822 50.312882 2.191245 0.000000 0.000000 0.000000 -7.491717 -4.278839 24.767697 -14.331867 -23.206734 -2.957882 -16.365841 21.615178 24.526661 0.000000 0.000000 0.000000 7.125000 0.000000 0.000000 13.943157 54.868136 -3.431035
44.185591 17.713896 3.612591 -102.864554 -84.466867 114.828501 0.000000 0.000000 0.000000 -9.052472 -8.154075 -24.675708 4.663851 12.991808 39.342989 0.504230 0.956974 -13.792717 0.295882 -3.495840 -9.662682 0.000000 0.000000 0.000000 29.707531 4.985518 -10.330826 -0.812610 -5.752484 16.067847 -0.424370 -8.351662 -18.079246 -0.969558 -6.268926 17.566675 4.453644 0.551501 -2.834594 3.898216 0.480755 -0.847466 1.525364 0.202753 0.725149 -6.029123 0.035103 -19.488094 5.557765 0.646608 15.417245 2.926232 0.510454 7.925797 0.000000 0.000000 0.000000 -3.838351 0.840267 -3.987750 14.386635 -23.284620 2.979283 12.086612 32.830537 -20.440341 0.000000 0.000000 0.000000 -7.125000 0.000000 0.000000 -16.273430 50.129151 2.106682 0.000000 0.000000 0.000000 -7.651571 -4.242099 25.394230 -14.641206 -23.643589 -3.080782 -16.512814 21.407857 24.675098 0.000000 0.000000 0.000000 7.125000 0.000000 0.000000 13.867359 55.042699 -3.472006
44.171947 17.707514 3.599647 -101.237930 -84.416329 113.151900 0.000000 0.000000 0.000000 -8.745115 -8.276079 -25.762667 5.062605 13.451129 41.086732 0.472948 1.171444 -13.467801 0.350759 -3.801800 -10.520098 0.000000 0.000000 0.000000 29.888651 5.022864 -10.311251 -0.833906 -5.825488 16.278975 -0.447519 -8.397434 -18.387458 -0.974941 -6.285883 17.616228 4.536024 0.568948 -2.668699 3.928574 0.507620 -0.748178 1.510692 0.216981 0.734957 -6.002543 0.036019 -19.445194 5.531291 0.650698 15.193943 2.908749 0.513081 7.844037 0.000000 0.000000 0.000000 -3.837778 0.841655 -4.389661 14.519998 -23.473075 3.032235 11.991590 32.554883 -20.253026 0.000000 0.000000 0.000000 -7.125000 0.000000 0.000000 -16.284838 49.932901 2.027786 0.000000 0.000000 0.000000 -7.817976 -4.206101 25.997367 -14.957082 -24.085829 -3.208711 -16.588072 21.226811 24.585460 0.000000 0.000000 0.000000 7.125000 0.000000 0.000000 13.744655 54.969337 -3.413745
44.154259 17.701144 3.585946 -99.795940 -84.371780 111.634835 0.000000 0.000000 0.000000 -8.454555 -8.380101 -26.771263 5.450474 13.871820 42.730406 0.444173 1.862657 -13.410216 0.437686 -4.240018 -11.753479 0.000000 0.000000 0.000000 30.041361 4.872864 -10.221316 -0.836137 -5.833044 16.300807 -0.462473 -8.360553 -18.520761 -0.960926 -6.241564 17.487049 4.632592 0.566247 -2.507822 3.934307 0.507233 -0.632412 1.461971 0.218399 0.764628 -5.933547 0.039427 -19.384192 5.442999 0.658374 14.926779 2.863031 0.513821 7.745030 0.000000 0.000000 0.000000 -3.792306 0.852695 -4.752686 14.666473 -23.679335 3.090771 11.880047 32.273198 -20.137443 0.000000 0.000000 0.000000 -7.125000 0.000000 0.000000 -16.342284 49.803827 1.982444 0.000000 0.000000 0.000000 -7.948944 -4.173495 26.674178 -15.300389 -24.562486 -3.350019 -16.764332 21.156475 24.764186 0.000000 0.000000 0.000000 7.125000 0.000000 0.000000 13.652574 55.180475 -3.459964
